<svg xmlns="http://www.w3.org/2000/svg" xmlns:xlink="http://www.w3.org/1999/xlink" zoomAndPan="magnify" viewBox="139.81 171 95.69 33" preserveAspectRatio="xMidYMid meet" version="1.0"><defs><g></g><clipPath id="8d2a2be0da"><path d="M 202.5 171 L 235.5 171 L 235.5 204 L 202.5 204 Z M 202.5 171 " clip-rule="nonzero"></path></clipPath><clipPath id="cd33a6d8ed"><path d="M 219 171 C 209.886719 171 202.5 178.386719 202.5 187.5 C 202.5 196.613281 209.886719 204 219 204 C 228.113281 204 235.5 196.613281 235.5 187.5 C 235.5 178.386719 228.113281 171 219 171 Z M 219 171 " clip-rule="nonzero"></path></clipPath></defs><g clip-path="url(#8d2a2be0da)"><g clip-path="url(#cd33a6d8ed)"><path fill="#9de50f" d="M 202.5 171 L 235.5 171 L 235.5 204 L 202.5 204 Z M 202.5 171 " fill-opacity="1" fill-rule="nonzero"></path></g></g><g fill="#000000" fill-opacity="1"><g transform="translate(227.75079, 197.371041)"><g><path d="M 0 -1.734375 L -1.375 -1.734375 L -1.375 -3.484375 C -1.375 -3.910156 -1.457031 -4.285156 -1.625 -4.609375 C -1.800781 -4.929688 -2.050781 -5.175781 -2.375 -5.34375 C -2.707031 -5.519531 -3.097656 -5.609375 -3.546875 -5.609375 C -3.984375 -5.609375 -4.363281 -5.519531 -4.6875 -5.34375 C -5.007812 -5.164062 -5.253906 -4.914062 -5.421875 -4.59375 C -5.597656 -4.28125 -5.6875 -3.910156 -5.6875 -3.484375 L -5.6875 -1.6875 L -7.0625 -1.6875 L -7.0625 -3.515625 C -7.0625 -4.046875 -6.972656 -4.535156 -6.796875 -4.984375 C -6.628906 -5.429688 -6.382812 -5.820312 -6.0625 -6.15625 C -5.75 -6.5 -5.378906 -6.757812 -4.953125 -6.9375 C -4.523438 -7.125 -4.050781 -7.21875 -3.53125 -7.21875 C -3.019531 -7.21875 -2.546875 -7.125 -2.109375 -6.9375 C -1.671875 -6.757812 -1.296875 -6.503906 -0.984375 -6.171875 C -0.671875 -5.835938 -0.425781 -5.441406 -0.25 -4.984375 C -0.0820312 -4.535156 0 -4.050781 0 -3.53125 Z M 0 -0.6875 L -7.0625 -0.6875 L -7.0625 -2.25 L 0 -2.25 Z M 0 -0.6875 "></path></g></g></g><g fill="#000000" fill-opacity="1"><g transform="translate(227.75079, 189.834019)"><g><path d="M 0.109375 -2.9375 C 0.109375 -2.414062 0 -1.945312 -0.21875 -1.53125 C -0.4375 -1.125 -0.738281 -0.800781 -1.125 -0.5625 C -1.507812 -0.332031 -1.945312 -0.21875 -2.4375 -0.21875 C -2.914062 -0.21875 -3.347656 -0.332031 -3.734375 -0.5625 C -4.117188 -0.789062 -4.421875 -1.101562 -4.640625 -1.5 C -4.859375 -1.894531 -4.96875 -2.335938 -4.96875 -2.828125 C -4.96875 -3.304688 -4.863281 -3.726562 -4.65625 -4.09375 C -4.445312 -4.46875 -4.160156 -4.757812 -3.796875 -4.96875 C -3.429688 -5.175781 -3.015625 -5.28125 -2.546875 -5.28125 C -2.453125 -5.28125 -2.359375 -5.273438 -2.265625 -5.265625 C -2.171875 -5.253906 -2.0625 -5.234375 -1.9375 -5.203125 L -1.921875 -1.015625 L -2.96875 -1.015625 L -2.984375 -4.5625 L -2.546875 -3.90625 C -2.816406 -3.894531 -3.046875 -3.847656 -3.234375 -3.765625 C -3.421875 -3.691406 -3.5625 -3.578125 -3.65625 -3.421875 C -3.75 -3.265625 -3.796875 -3.070312 -3.796875 -2.84375 C -3.796875 -2.601562 -3.738281 -2.394531 -3.625 -2.21875 C -3.519531 -2.039062 -3.367188 -1.898438 -3.171875 -1.796875 C -2.972656 -1.703125 -2.726562 -1.65625 -2.4375 -1.65625 C -2.15625 -1.65625 -1.910156 -1.707031 -1.703125 -1.8125 C -1.503906 -1.914062 -1.347656 -2.0625 -1.234375 -2.25 C -1.117188 -2.445312 -1.0625 -2.675781 -1.0625 -2.9375 C -1.0625 -3.175781 -1.101562 -3.390625 -1.1875 -3.578125 C -1.269531 -3.773438 -1.394531 -3.945312 -1.5625 -4.09375 L -0.734375 -4.9375 C -0.453125 -4.6875 -0.238281 -4.390625 -0.09375 -4.046875 C 0.0390625 -3.710938 0.109375 -3.34375 0.109375 -2.9375 Z M 0.109375 -2.9375 "></path></g></g></g><g fill="#000000" fill-opacity="1"><g transform="translate(227.75079, 184.356179)"><g><path d="M 0 -2.0625 L -4.859375 -0.015625 L -4.859375 -1.65625 L -0.8125 -3.0625 L -0.8125 -2.34375 L -4.859375 -3.734375 L -4.859375 -5.359375 L 0 -3.296875 Z M 0 -2.0625 "></path></g></g></g><g fill="#ffffff" fill-opacity="1"><g transform="translate(139.499995, 192.400007)"><g><path d="M 5.59375 0.21875 C 4.4375 0.21875 3.441406 0.03125 2.609375 -0.34375 C 1.773438 -0.726562 1.007812 -1.304688 0.3125 -2.078125 L 2.359375 -4.09375 C 2.816406 -3.570312 3.320312 -3.164062 3.875 -2.875 C 4.425781 -2.59375 5.066406 -2.453125 5.796875 -2.453125 C 6.460938 -2.453125 6.976562 -2.570312 7.34375 -2.8125 C 7.71875 -3.0625 7.90625 -3.394531 7.90625 -3.8125 C 7.90625 -4.207031 7.785156 -4.523438 7.546875 -4.765625 C 7.304688 -5.003906 6.988281 -5.207031 6.59375 -5.375 C 6.195312 -5.550781 5.757812 -5.71875 5.28125 -5.875 C 4.8125 -6.039062 4.34375 -6.222656 3.875 -6.421875 C 3.414062 -6.628906 2.988281 -6.890625 2.59375 -7.203125 C 2.195312 -7.523438 1.878906 -7.921875 1.640625 -8.390625 C 1.398438 -8.859375 1.28125 -9.457031 1.28125 -10.1875 C 1.28125 -11.050781 1.488281 -11.796875 1.90625 -12.421875 C 2.332031 -13.046875 2.914062 -13.519531 3.65625 -13.84375 C 4.40625 -14.175781 5.265625 -14.34375 6.234375 -14.34375 C 7.222656 -14.34375 8.128906 -14.164062 8.953125 -13.8125 C 9.773438 -13.46875 10.453125 -13 10.984375 -12.40625 L 8.9375 -10.375 C 8.507812 -10.820312 8.078125 -11.148438 7.640625 -11.359375 C 7.210938 -11.578125 6.726562 -11.6875 6.1875 -11.6875 C 5.632812 -11.6875 5.195312 -11.582031 4.875 -11.375 C 4.5625 -11.164062 4.40625 -10.867188 4.40625 -10.484375 C 4.40625 -10.117188 4.523438 -9.828125 4.765625 -9.609375 C 5.003906 -9.390625 5.316406 -9.195312 5.703125 -9.03125 C 6.097656 -8.875 6.53125 -8.710938 7 -8.546875 C 7.476562 -8.390625 7.953125 -8.207031 8.421875 -8 C 8.890625 -7.789062 9.316406 -7.519531 9.703125 -7.1875 C 10.097656 -6.863281 10.414062 -6.453125 10.65625 -5.953125 C 10.894531 -5.453125 11.015625 -4.832031 11.015625 -4.09375 C 11.015625 -2.75 10.535156 -1.691406 9.578125 -0.921875 C 8.617188 -0.160156 7.289062 0.21875 5.59375 0.21875 Z M 5.59375 0.21875 "></path></g></g></g><g fill="#ffffff" fill-opacity="1"><g transform="translate(151.155402, 192.400007)"><g><path d="M 5.140625 0.203125 C 4.242188 0.203125 3.445312 -0.015625 2.75 -0.453125 C 2.050781 -0.898438 1.5 -1.503906 1.09375 -2.265625 C 0.6875 -3.023438 0.484375 -3.890625 0.484375 -4.859375 C 0.484375 -5.828125 0.6875 -6.691406 1.09375 -7.453125 C 1.5 -8.210938 2.050781 -8.8125 2.75 -9.25 C 3.445312 -9.695312 4.242188 -9.921875 5.140625 -9.921875 C 5.796875 -9.921875 6.382812 -9.789062 6.90625 -9.53125 C 7.4375 -9.28125 7.867188 -8.929688 8.203125 -8.484375 C 8.535156 -8.035156 8.722656 -7.523438 8.765625 -6.953125 L 8.765625 -2.765625 C 8.722656 -2.191406 8.535156 -1.679688 8.203125 -1.234375 C 7.878906 -0.785156 7.453125 -0.429688 6.921875 -0.171875 C 6.390625 0.078125 5.796875 0.203125 5.140625 0.203125 Z M 5.765625 -2.5625 C 6.410156 -2.5625 6.929688 -2.773438 7.328125 -3.203125 C 7.734375 -3.640625 7.9375 -4.191406 7.9375 -4.859375 C 7.9375 -5.316406 7.847656 -5.71875 7.671875 -6.0625 C 7.492188 -6.40625 7.238281 -6.671875 6.90625 -6.859375 C 6.582031 -7.054688 6.207031 -7.15625 5.78125 -7.15625 C 5.351562 -7.15625 4.972656 -7.054688 4.640625 -6.859375 C 4.316406 -6.671875 4.054688 -6.40625 3.859375 -6.0625 C 3.671875 -5.71875 3.578125 -5.316406 3.578125 -4.859375 C 3.578125 -4.421875 3.671875 -4.023438 3.859375 -3.671875 C 4.046875 -3.328125 4.304688 -3.054688 4.640625 -2.859375 C 4.972656 -2.660156 5.347656 -2.5625 5.765625 -2.5625 Z M 7.8125 0 L 7.8125 -2.625 L 8.28125 -4.984375 L 7.8125 -7.34375 L 7.8125 -9.71875 L 10.8125 -9.71875 L 10.8125 0 Z M 7.8125 0 "></path></g></g></g><g fill="#ffffff" fill-opacity="1"><g transform="translate(163.05071, 192.400007)"><g><path d="M 7.5 0 L 7.5 -5.546875 C 7.5 -6.046875 7.34375 -6.453125 7.03125 -6.765625 C 6.71875 -7.078125 6.320312 -7.234375 5.84375 -7.234375 C 5.507812 -7.234375 5.210938 -7.160156 4.953125 -7.015625 C 4.703125 -6.878906 4.503906 -6.679688 4.359375 -6.421875 C 4.210938 -6.171875 4.140625 -5.878906 4.140625 -5.546875 L 2.953125 -6.125 C 2.953125 -6.882812 3.117188 -7.550781 3.453125 -8.125 C 3.785156 -8.695312 4.25 -9.140625 4.84375 -9.453125 C 5.4375 -9.765625 6.109375 -9.921875 6.859375 -9.921875 C 7.578125 -9.921875 8.210938 -9.75 8.765625 -9.40625 C 9.316406 -9.070312 9.753906 -8.625 10.078125 -8.0625 C 10.398438 -7.5 10.5625 -6.882812 10.5625 -6.21875 L 10.5625 0 Z M 1.078125 0 L 1.078125 -9.71875 L 4.140625 -9.71875 L 4.140625 0 Z M 1.078125 0 "></path></g></g></g><g fill="#ffffff" fill-opacity="1"><g transform="translate(174.486195, 192.400007)"><g><path d="M 5.21875 0.203125 C 4.300781 0.203125 3.484375 -0.015625 2.765625 -0.453125 C 2.054688 -0.898438 1.5 -1.503906 1.09375 -2.265625 C 0.6875 -3.023438 0.484375 -3.890625 0.484375 -4.859375 C 0.484375 -5.828125 0.6875 -6.691406 1.09375 -7.453125 C 1.5 -8.210938 2.054688 -8.8125 2.765625 -9.25 C 3.484375 -9.695312 4.300781 -9.921875 5.21875 -9.921875 C 5.882812 -9.921875 6.488281 -9.789062 7.03125 -9.53125 C 7.570312 -9.28125 8.019531 -8.929688 8.375 -8.484375 C 8.726562 -8.035156 8.921875 -7.523438 8.953125 -6.953125 L 8.953125 -2.859375 C 8.921875 -2.285156 8.726562 -1.769531 8.375 -1.3125 C 8.03125 -0.851562 7.582031 -0.484375 7.03125 -0.203125 C 6.488281 0.0664062 5.882812 0.203125 5.21875 0.203125 Z M 5.765625 -2.5625 C 6.203125 -2.5625 6.578125 -2.65625 6.890625 -2.84375 C 7.210938 -3.039062 7.46875 -3.3125 7.65625 -3.65625 C 7.84375 -4.007812 7.9375 -4.410156 7.9375 -4.859375 C 7.9375 -5.316406 7.847656 -5.710938 7.671875 -6.046875 C 7.492188 -6.390625 7.238281 -6.660156 6.90625 -6.859375 C 6.582031 -7.054688 6.207031 -7.15625 5.78125 -7.15625 C 5.351562 -7.15625 4.972656 -7.054688 4.640625 -6.859375 C 4.316406 -6.660156 4.054688 -6.382812 3.859375 -6.03125 C 3.671875 -5.6875 3.578125 -5.296875 3.578125 -4.859375 C 3.578125 -4.421875 3.671875 -4.023438 3.859375 -3.671875 C 4.046875 -3.328125 4.304688 -3.054688 4.640625 -2.859375 C 4.972656 -2.660156 5.347656 -2.5625 5.765625 -2.5625 Z M 10.8125 0 L 7.8125 0 L 7.8125 -2.625 L 8.28125 -4.984375 L 7.765625 -7.34375 L 7.765625 -14.515625 L 10.8125 -14.515625 Z M 10.8125 0 "></path></g></g></g><g fill="#ffffff" fill-opacity="1"><g transform="translate(186.381504, 192.400007)"><g><path d="M 5.875 0.21875 C 4.820312 0.21875 3.882812 0.00390625 3.0625 -0.421875 C 2.25 -0.859375 1.609375 -1.460938 1.140625 -2.234375 C 0.671875 -3.015625 0.4375 -3.890625 0.4375 -4.859375 C 0.4375 -5.828125 0.664062 -6.695312 1.125 -7.46875 C 1.582031 -8.238281 2.207031 -8.84375 3 -9.28125 C 3.789062 -9.71875 4.675781 -9.9375 5.65625 -9.9375 C 6.613281 -9.9375 7.457031 -9.726562 8.1875 -9.3125 C 8.925781 -8.90625 9.503906 -8.332031 9.921875 -7.59375 C 10.347656 -6.863281 10.5625 -6.023438 10.5625 -5.078125 C 10.5625 -4.898438 10.550781 -4.710938 10.53125 -4.515625 C 10.507812 -4.328125 10.472656 -4.109375 10.421875 -3.859375 L 2.046875 -3.84375 L 2.046875 -5.9375 L 9.125 -5.953125 L 7.796875 -5.078125 C 7.785156 -5.640625 7.695312 -6.101562 7.53125 -6.46875 C 7.375 -6.832031 7.140625 -7.109375 6.828125 -7.296875 C 6.515625 -7.492188 6.132812 -7.59375 5.6875 -7.59375 C 5.195312 -7.59375 4.773438 -7.484375 4.421875 -7.265625 C 4.078125 -7.046875 3.804688 -6.734375 3.609375 -6.328125 C 3.410156 -5.929688 3.3125 -5.445312 3.3125 -4.875 C 3.3125 -4.300781 3.414062 -3.8125 3.625 -3.40625 C 3.832031 -3 4.125 -2.6875 4.5 -2.46875 C 4.882812 -2.25 5.335938 -2.140625 5.859375 -2.140625 C 6.335938 -2.140625 6.769531 -2.222656 7.15625 -2.390625 C 7.539062 -2.554688 7.882812 -2.804688 8.1875 -3.140625 L 9.859375 -1.453125 C 9.378906 -0.898438 8.796875 -0.484375 8.109375 -0.203125 C 7.429688 0.078125 6.6875 0.21875 5.875 0.21875 Z M 5.875 0.21875 "></path></g></g></g><g fill="#ffffff" fill-opacity="1"><g transform="translate(197.337184, 192.400007)"><g><path d="M 5.875 0.21875 C 4.820312 0.21875 3.882812 0.00390625 3.0625 -0.421875 C 2.25 -0.859375 1.609375 -1.460938 1.140625 -2.234375 C 0.671875 -3.015625 0.4375 -3.890625 0.4375 -4.859375 C 0.4375 -5.828125 0.664062 -6.695312 1.125 -7.46875 C 1.582031 -8.238281 2.207031 -8.84375 3 -9.28125 C 3.789062 -9.71875 4.675781 -9.9375 5.65625 -9.9375 C 6.613281 -9.9375 7.457031 -9.726562 8.1875 -9.3125 C 8.925781 -8.90625 9.503906 -8.332031 9.921875 -7.59375 C 10.347656 -6.863281 10.5625 -6.023438 10.5625 -5.078125 C 10.5625 -4.898438 10.550781 -4.710938 10.53125 -4.515625 C 10.507812 -4.328125 10.472656 -4.109375 10.421875 -3.859375 L 2.046875 -3.84375 L 2.046875 -5.9375 L 9.125 -5.953125 L 7.796875 -5.078125 C 7.785156 -5.640625 7.695312 -6.101562 7.53125 -6.46875 C 7.375 -6.832031 7.140625 -7.109375 6.828125 -7.296875 C 6.515625 -7.492188 6.132812 -7.59375 5.6875 -7.59375 C 5.195312 -7.59375 4.773438 -7.484375 4.421875 -7.265625 C 4.078125 -7.046875 3.804688 -6.734375 3.609375 -6.328125 C 3.410156 -5.929688 3.3125 -5.445312 3.3125 -4.875 C 3.3125 -4.300781 3.414062 -3.8125 3.625 -3.40625 C 3.832031 -3 4.125 -2.6875 4.5 -2.46875 C 4.882812 -2.25 5.335938 -2.140625 5.859375 -2.140625 C 6.335938 -2.140625 6.769531 -2.222656 7.15625 -2.390625 C 7.539062 -2.554688 7.882812 -2.804688 8.1875 -3.140625 L 9.859375 -1.453125 C 9.378906 -0.898438 8.796875 -0.484375 8.109375 -0.203125 C 7.429688 0.078125 6.6875 0.21875 5.875 0.21875 Z M 5.875 0.21875 "></path></g></g></g><g fill="#ffffff" fill-opacity="1"><g transform="translate(208.292864, 192.400007)"><g><path d="M 6.6875 0.203125 C 6.03125 0.203125 5.425781 0.078125 4.875 -0.171875 C 4.332031 -0.429688 3.882812 -0.785156 3.53125 -1.234375 C 3.1875 -1.679688 2.988281 -2.191406 2.9375 -2.765625 L 2.9375 -6.859375 C 2.988281 -7.429688 3.1875 -7.953125 3.53125 -8.421875 C 3.882812 -8.890625 4.332031 -9.253906 4.875 -9.515625 C 5.425781 -9.785156 6.03125 -9.921875 6.6875 -9.921875 C 7.601562 -9.921875 8.414062 -9.695312 9.125 -9.25 C 9.84375 -8.8125 10.40625 -8.210938 10.8125 -7.453125 C 11.21875 -6.691406 11.421875 -5.828125 11.421875 -4.859375 C 11.421875 -3.890625 11.21875 -3.023438 10.8125 -2.265625 C 10.40625 -1.503906 9.84375 -0.898438 9.125 -0.453125 C 8.414062 -0.015625 7.601562 0.203125 6.6875 0.203125 Z M 1.078125 4.09375 L 1.078125 -9.71875 L 4.140625 -9.71875 L 4.140625 -7.21875 L 3.640625 -4.859375 L 4.09375 -2.5 L 4.09375 4.09375 Z M 6.125 -2.5625 C 6.5625 -2.5625 6.941406 -2.660156 7.265625 -2.859375 C 7.597656 -3.054688 7.851562 -3.328125 8.03125 -3.671875 C 8.21875 -4.023438 8.3125 -4.421875 8.3125 -4.859375 C 8.3125 -5.316406 8.21875 -5.71875 8.03125 -6.0625 C 7.851562 -6.40625 7.597656 -6.671875 7.265625 -6.859375 C 6.941406 -7.054688 6.566406 -7.15625 6.140625 -7.15625 C 5.710938 -7.15625 5.332031 -7.054688 5 -6.859375 C 4.675781 -6.671875 4.421875 -6.40625 4.234375 -6.0625 C 4.046875 -5.71875 3.953125 -5.316406 3.953125 -4.859375 C 3.953125 -4.421875 4.039062 -4.023438 4.21875 -3.671875 C 4.40625 -3.328125 4.664062 -3.054688 5 -2.859375 C 5.332031 -2.660156 5.707031 -2.5625 6.125 -2.5625 Z M 6.125 -2.5625 "></path></g></g></g></svg>